<?xml version="1.0" encoding="UTF-8"?>
<svg xmlns="http://www.w3.org/2000/svg" baseProfile="tiny" version="1.2" viewBox="0 0 1014.1 1014.5">
<path d="M598.3,302c-4.3,1.2-8.9.6-12.7-1.7-3.8-2.2-6.6-6-7.5-10.4-1-4.4-.1-8.9,2.3-12.7,2.4-3.7,6.3-6.2,10.7-7,42.8-9.9,87.8,3,118.8,34.1,31.1,31.1,43.9,76,34,118.9-2,8.8-10.8,14.3-19.6,12.4-8.8-2-14.3-10.8-12.3-19.6,7.5-31.9-2.1-65.3-25.2-88.5s-56.6-32.8-88.5-25.5h0Z" fill-rule="evenodd"/>
<path d="M572,188.1c-8.7,1.8-17.2-3.7-19.2-12.3s3.3-17.3,11.9-19.5c82.1-19,168.1,5.7,227.7,65.2,59.6,59.5,84.2,145.6,65.2,227.7-.9,4.3-3.5,8.1-7.2,10.4-3.7,2.4-8.2,3.1-12.5,2.2-4.3-1-8-3.7-10.3-7.4s-3-8.2-1.9-12.5c16.4-71.1-5-145.6-56.6-197.2-51.6-51.6-126.1-72.9-197.2-56.6h0Z" fill-rule="evenodd"/>
<path d="M545.6,74.4c-8.7,1.8-17.2-3.7-19.2-12.3-2-8.6,3.3-17.3,11.9-19.5,121.4-28.2,248.7,8.2,336.7,96.3,88.1,88.1,124.5,215.4,96.3,336.7-.9,4.3-3.5,8.1-7.2,10.4-3.7,2.4-8.2,3.2-12.5,2.2-4.3-1-8-3.7-10.3-7.4s-3-8.3-1.9-12.5c25.6-110.4-7.6-226.2-87.7-306.3s-195.9-113.3-306.3-87.7h0Z" fill-rule="evenodd"/>
<path d="M851.4,1013.7c19.9,3.1,40.2-2.6,55.6-15.8,60-50.1,101.1-111,107.1-186.8h0c1.1-10-3.5-19.9-12-25.4-76.2-48.2-159.2-98.5-230.2-134.5-7.5-3.9-16.5-3.9-24,0l-106.5,47.3c-4.9,1.7-10.4,1-14.6-1.9-126.4-76.9-232.5-183-309.4-309.4-2.9-4.7-3.1-10.5-.7-15.5l47.1-105.9h0c3.9-7.5,3.9-16.5,0-24-36-71.1-86.6-153.9-134.9-229.6-5.5-8.5-15.4-13.1-25.5-12C127.5,6.2,66.6,46.9,16.5,107.2,3.4,122.6-2.3,142.9.8,162.8c49.9,360.2,490.1,800.4,850.6,850.9h0Z" fill-rule="evenodd"/>
</svg>