<?xml version="1.0" encoding="UTF-8"?>
<svg id="a" data-name="Isolation_Mode" xmlns="http://www.w3.org/2000/svg" viewBox="0 0 511.94 511.94">
  <defs>
    <style>
      .b {
        fill: #fff;
      }
    </style>
  </defs>
  <path class="b" d="M511.94,479.94v32H0c0-10.67,0-21.33,0-32h32V0h223.97v192.09h224.03v287.85h31.94ZM96.34,416.17v63.38h95.37v-63.38h-95.37ZM415.68,479.72v-63.47h-95.37v63.47h95.37ZM127.62,95.78v-63.37h-63.35v63.37h63.35ZM160.33,32.22v63.37h63.38v-63.37h-63.38ZM64.24,191.65h63.37v-63.43h-63.37v63.43ZM223.66,191.88v-63.54h-63.27v63.54h63.27ZM64.26,224.19v63.47h63.38v-63.47h-63.38ZM223.75,224.33h-63.37v63.36h63.37v-63.36ZM288.18,287.61h63.37v-63.36h-63.37v63.36ZM447.72,224.33h-63.37v63.37h63.37v-63.37ZM127.63,383.73v-63.37h-63.37v63.37h63.37ZM160.18,383.58h63.55v-63.33h-63.55v63.33ZM288.18,383.59h63.37v-63.36h-63.37v63.36ZM447.59,383.73v-63.37h-63.37v63.37h63.37Z"/>
</svg>